<svg xmlns="http://www.w3.org/2000/svg" xmlns:xlink="http://www.w3.org/1999/xlink" width="40" zoomAndPan="magnify" viewBox="0 0 30 30.000001" height="40" preserveAspectRatio="xMidYMid meet" version="1.0"><defs><clipPath id="de1d9eda08"><path d="M 0.484375 0.171875 L 29.515625 0.171875 L 29.515625 29.03125 L 0.484375 29.03125 Z M 0.484375 0.171875 " clip-rule="nonzero"/></clipPath><clipPath id="b52f196cad"><path d="M 15 0.171875 C 6.984375 0.171875 0.484375 6.671875 0.484375 14.6875 C 0.484375 22.707031 6.984375 29.203125 15 29.203125 C 23.015625 29.203125 29.515625 22.707031 29.515625 14.6875 C 29.515625 6.671875 23.015625 0.171875 15 0.171875 Z M 15 0.171875 " clip-rule="nonzero"/></clipPath><clipPath id="56eeab59f5"><path d="M 5.128906 2.253906 L 28.820312 2.253906 L 28.820312 26.761719 L 5.128906 26.761719 Z M 5.128906 2.253906 " clip-rule="nonzero"/></clipPath><clipPath id="edc53647d9"><path d="M 5.128906 5.882812 L 5.128906 23.492188 C 5.128906 25.5 6.753906 27.121094 8.757812 27.121094 L 25.257812 27.121094 C 27.261719 27.121094 28.886719 25.5 28.886719 23.492188 L 28.886719 5.882812 C 28.886719 3.878906 27.261719 2.253906 25.257812 2.253906 L 8.757812 2.253906 C 6.753906 2.253906 5.128906 3.878906 5.128906 5.882812 Z M 5.128906 5.882812 " clip-rule="nonzero"/></clipPath></defs><g clip-path="url(#de1d9eda08)"><g clip-path="url(#b52f196cad)"><path fill="#000000" d="M 0.484375 0.171875 L 29.515625 0.171875 L 29.515625 29.203125 L 0.484375 29.203125 Z M 0.484375 0.171875 " fill-opacity="1" fill-rule="nonzero"/></g></g><g clip-path="url(#56eeab59f5)"><g clip-path="url(#edc53647d9)"><path fill="#fe8f2d" d="M 5.128906 27.121094 L 14.824219 27.121094 C 16.394531 27.121094 17.851562 26.90625 19.199219 26.496094 C 27.324219 24.042969 27.90625 14.550781 21.210938 10.511719 C 21.429688 10.867188 21.621094 11.25 21.78125 11.65625 C 22.136719 12.574219 22.3125 13.582031 22.320312 14.6875 L 22.320312 14.757812 C 22.3125 15.863281 22.136719 16.871094 21.78125 17.777344 C 21.421875 18.683594 20.910156 19.464844 20.253906 20.121094 C 19.589844 20.777344 18.804688 21.289062 17.886719 21.644531 C 16.96875 22 15.949219 22.183594 14.824219 22.183594 L 10.597656 22.183594 L 10.597656 7.191406 L 14.824219 7.191406 C 20.625 7.222656 28.882812 11.738281 26.726562 20.335938 C 26.992188 19.800781 27.226562 19.246094 27.417969 18.664062 C 27.824219 17.417969 28.03125 16.089844 28.039062 14.6875 L 28.039062 14.617188 C 28.03125 12.859375 27.707031 11.230469 27.074219 9.730469 C 26.441406 8.234375 25.535156 6.925781 24.363281 5.8125 C 23.191406 4.695312 21.800781 3.824219 20.191406 3.203125 C 18.574219 2.582031 16.785156 2.265625 14.824219 2.253906 L 5.128906 2.253906 Z M 5.128906 27.121094 " fill-opacity="1" fill-rule="nonzero"/></g></g></svg>